<?xml version="1.0" encoding="utf-8"?>
<!-- Generator: Adobe Illustrator 25.2.1, SVG Export Plug-In . SVG Version: 6.00 Build 0)  -->
<svg version="1.1" xmlns="http://www.w3.org/2000/svg" xmlns:xlink="http://www.w3.org/1999/xlink" x="0px" y="0px"
	 viewBox="0 0 32 32" style="enable-background:new 0 0 32 32;" xml:space="preserve">
<style type="text/css">
	.st0{fill:url(#SVGID_1_);}
	.st1{fill:#FFFFFF;}
	.st2{fill:#D2B6FF;}
	.st3{fill:#F9CFD9;}
	.st4{fill:#F7849A;}
	.st5{fill:#BCDFF7;}
	.st6{fill:#5BAFF4;}
	.st7{fill:#D3EADD;}
	.st8{fill:#8EDDB3;}
	.st9{fill:#E0D3F4;}
	.st10{fill:#C888ED;}
	.st11{fill:#BB86EF;}
</style>
<g id="Layer_14">
	<linearGradient id="SVGID_1_" gradientUnits="userSpaceOnUse" x1="0.3325" y1="31.6261" x2="31.626" y2="0.4152">
		<stop  offset="0" style="stop-color:#4811FF"/>
		<stop  offset="0.5713" style="stop-color:#681AFD"/>
		<stop  offset="1" style="stop-color:#8221FB"/>
	</linearGradient>
	<rect x="0" class="st0" width="32" height="32"/>
</g>
<g id="Layer_9">
	<g>
		<path class="st1" d="M4.25,3.76l10.31-0.03c0.28,0,0.5,0.22,0.5,0.5l0.02,7.34c0,0.28-0.22,0.5-0.5,0.5L4.27,12.11
			c-0.28,0-0.5-0.22-0.5-0.5L3.75,4.27C3.75,3.99,3.98,3.76,4.25,3.76z"/>
		<path class="st1" d="M10.23,13.6H4.06c-0.17,0-0.31-0.14-0.31-0.31l0,0c0-0.17,0.14-0.31,0.31-0.31h6.17
			c0.17,0,0.31,0.14,0.31,0.31l0,0C10.54,13.46,10.4,13.6,10.23,13.6z"/>
		<path class="st2" d="M14.63,13.6h-3.09c-0.17,0-0.31-0.14-0.31-0.31l0,0c0-0.17,0.14-0.31,0.31-0.31h3.09
			c0.17,0,0.31,0.14,0.31,0.31l0,0C14.94,13.46,14.8,13.6,14.63,13.6z"/>
		<path class="st2" d="M6.89,14.93H4.06c-0.17,0-0.31-0.14-0.31-0.31v0c0-0.17,0.14-0.31,0.31-0.31h2.83c0.17,0,0.31,0.14,0.31,0.31
			v0C7.21,14.79,7.07,14.93,6.89,14.93z"/>
		<path class="st1" d="M14.75,14.93H8.28c-0.17,0-0.31-0.14-0.31-0.31v0c0-0.17,0.14-0.31,0.31-0.31h6.48
			c0.17,0,0.31,0.14,0.31,0.31v0C15.07,14.79,14.93,14.93,14.75,14.93z"/>
		<g>
			<path class="st3" d="M7.46,7.53L6.42,8.81C6.19,9.1,6.39,9.53,6.76,9.53h2.08c0.37,0,0.58-0.43,0.34-0.72L8.14,7.53
				C7.97,7.32,7.64,7.32,7.46,7.53z"/>
			<path class="st4" d="M9.95,6.65l-1.7,2.08c-0.26,0.32-0.03,0.8,0.38,0.8h3.4c0.41,0,0.64-0.48,0.38-0.8l-1.7-2.08
				C10.51,6.41,10.14,6.41,9.95,6.65z"/>
			<circle class="st4" cx="7.8" cy="6.67" r="0.36"/>
		</g>
	</g>
</g>
<g id="Layer_8">
	<g>
		<path class="st1" d="M17.49,3.76L27.8,3.74c0.28,0,0.5,0.22,0.5,0.5l0.02,7.34c0,0.28-0.22,0.5-0.5,0.5l-10.31,0.03
			c-0.28,0-0.5-0.22-0.5-0.5l-0.02-7.34C16.99,3.99,17.21,3.76,17.49,3.76z"/>
		<path class="st1" d="M23.46,13.6H17.3c-0.17,0-0.31-0.14-0.31-0.31l0,0c0-0.17,0.14-0.31,0.31-0.31h6.17
			c0.17,0,0.31,0.14,0.31,0.31l0,0C23.78,13.46,23.64,13.6,23.46,13.6z"/>
		<path class="st2" d="M27.87,13.6h-3.09c-0.17,0-0.31-0.14-0.31-0.31l0,0c0-0.17,0.14-0.31,0.31-0.31h3.09
			c0.17,0,0.31,0.14,0.31,0.31l0,0C28.18,13.46,28.04,13.6,27.87,13.6z"/>
		<path class="st2" d="M20.13,14.93H17.3c-0.17,0-0.31-0.14-0.31-0.31v0c0-0.17,0.14-0.31,0.31-0.31h2.83
			c0.17,0,0.31,0.14,0.31,0.31v0C20.44,14.79,20.3,14.93,20.13,14.93z"/>
		<path class="st1" d="M27.99,14.93h-6.48c-0.17,0-0.31-0.14-0.31-0.31v0c0-0.17,0.14-0.31,0.31-0.31h6.48
			c0.17,0,0.31,0.14,0.31,0.31v0C28.3,14.79,28.16,14.93,27.99,14.93z"/>
		<g>
			<path class="st5" d="M20.7,7.53l-1.04,1.28C19.42,9.1,19.63,9.53,20,9.53h2.08c0.37,0,0.58-0.43,0.34-0.72l-1.04-1.28
				C21.2,7.32,20.87,7.32,20.7,7.53z"/>
			<path class="st6" d="M23.18,6.65l-1.7,2.08c-0.26,0.32-0.03,0.8,0.38,0.8h3.4c0.41,0,0.64-0.48,0.38-0.8l-1.7-2.08
				C23.75,6.41,23.38,6.41,23.18,6.65z"/>
			<circle class="st6" cx="21.04" cy="6.67" r="0.36"/>
		</g>
	</g>
</g>
<g id="Layer_7">
	<g>
		<path class="st1" d="M4.22,17.08l10.31-0.03c0.28,0,0.5,0.22,0.5,0.5l0.02,7.34c0,0.28-0.22,0.5-0.5,0.5L4.24,25.43
			c-0.28,0-0.5-0.22-0.5-0.5l-0.02-7.34C3.72,17.31,3.94,17.08,4.22,17.08z"/>
		<path class="st1" d="M10.19,26.92H4.03c-0.17,0-0.31-0.14-0.31-0.31l0,0c0-0.17,0.14-0.31,0.31-0.31h6.17
			c0.17,0,0.31,0.14,0.31,0.31l0,0C10.51,26.78,10.37,26.92,10.19,26.92z"/>
		<path class="st2" d="M14.6,26.92H11.5c-0.17,0-0.31-0.14-0.31-0.31l0,0c0-0.17,0.14-0.31,0.31-0.31h3.09
			c0.17,0,0.31,0.14,0.31,0.31l0,0C14.91,26.78,14.77,26.92,14.6,26.92z"/>
		<path class="st2" d="M6.86,28.24H4.03c-0.17,0-0.31-0.14-0.31-0.31v0c0-0.17,0.14-0.31,0.31-0.31h2.83c0.17,0,0.31,0.14,0.31,0.31
			v0C7.17,28.1,7.03,28.24,6.86,28.24z"/>
		<path class="st1" d="M14.72,28.24H8.24c-0.17,0-0.31-0.14-0.31-0.31v0c0-0.17,0.14-0.31,0.31-0.31h6.48
			c0.17,0,0.31,0.14,0.31,0.31v0C15.03,28.1,14.89,28.24,14.72,28.24z"/>
		<g>
			<path class="st7" d="M7.43,20.85l-1.04,1.28c-0.23,0.29-0.03,0.72,0.34,0.72h2.08c0.37,0,0.58-0.43,0.34-0.72l-1.04-1.28
				C7.93,20.63,7.6,20.63,7.43,20.85z"/>
			<path class="st8" d="M9.91,19.97l-1.7,2.08c-0.26,0.32-0.03,0.8,0.38,0.8h3.4c0.41,0,0.64-0.48,0.38-0.8l-1.7-2.08
				C10.48,19.73,10.11,19.73,9.91,19.97z"/>
			<circle class="st8" cx="7.77" cy="19.99" r="0.36"/>
		</g>
	</g>
</g>
<g id="Layer_6">
	<g>
		<path class="st1" d="M17.46,17.08l10.31-0.03c0.28,0,0.5,0.22,0.5,0.5l0.02,7.34c0,0.28-0.22,0.5-0.5,0.5l-10.31,0.03
			c-0.28,0-0.5-0.22-0.5-0.5l-0.02-7.34C16.95,17.31,17.18,17.08,17.46,17.08z"/>
		<path class="st1" d="M23.43,26.92h-6.17c-0.17,0-0.31-0.14-0.31-0.31l0,0c0-0.17,0.14-0.31,0.31-0.31h6.17
			c0.17,0,0.31,0.14,0.31,0.31l0,0C23.74,26.78,23.6,26.92,23.43,26.92z"/>
		<path class="st2" d="M27.83,26.92h-3.09c-0.17,0-0.31-0.14-0.31-0.31l0,0c0-0.17,0.14-0.31,0.31-0.31h3.09
			c0.17,0,0.31,0.14,0.31,0.31l0,0C28.14,26.78,28.01,26.92,27.83,26.92z"/>
		<path class="st2" d="M20.09,28.24h-2.83c-0.17,0-0.31-0.14-0.31-0.31v0c0-0.17,0.14-0.31,0.31-0.31h2.83
			c0.17,0,0.31,0.14,0.31,0.31v0C20.41,28.1,20.27,28.24,20.09,28.24z"/>
		<path class="st1" d="M27.95,28.24h-6.48c-0.17,0-0.31-0.14-0.31-0.31v0c0-0.17,0.14-0.31,0.31-0.31h6.48
			c0.17,0,0.31,0.14,0.31,0.31v0C28.27,28.1,28.13,28.24,27.95,28.24z"/>
		<g>
			<path class="st9" d="M20.66,20.85l-1.04,1.28c-0.23,0.29-0.03,0.72,0.34,0.72h2.08c0.37,0,0.58-0.43,0.34-0.72l-1.04-1.28
				C21.17,20.63,20.84,20.63,20.66,20.85z"/>
			<path class="st10" d="M23.15,19.97l-1.7,2.08c-0.26,0.32-0.03,0.8,0.38,0.8h3.4c0.41,0,0.64-0.48,0.38-0.8l-1.7-2.08
				C23.71,19.73,23.34,19.73,23.15,19.97z"/>
			<circle class="st11" cx="21" cy="19.99" r="0.36"/>
		</g>
	</g>
</g>
</svg>
